<?xml version="1.0" encoding="UTF-8"?>
<svg id="_レイヤー_1" data-name="レイヤー 1" xmlns="http://www.w3.org/2000/svg" viewBox="0 0 1116.12 47.86">
  <defs>
    <style>
      .cls-1 {
        fill: #fff000;
      }
    </style>
  </defs>
  <g>
    <rect x="371.61" y="42.55" width="372.25" height="5.31"/>
    <g>
      <polygon points="402.18 32.34 402.18 21.9 376.16 21.9 376.16 32.34 376.16 42.79 402.18 42.79 402.18 32.34"/>
      <polygon points="481.91 0 466.74 .02 466.74 11.04 440.52 11.05 440.52 42.79 481.91 42.75 481.91 0"/>
      <rect x="484.19" y="20.94" width="18.99" height="21.84"/>
      <path d="M624.61,36.22l-6.22-6.83-5.17,6.83h.95v6.57h9.5v-2.81h.95v.46h.95v-2.85h-.95v.46h-.95v-1.82h.95ZM624.61,38.53v.95h-.95v-.95h.95Z"/>
      <polygon points="627.4 42.79 634.04 42.79 636.89 42.79 643.54 42.79 643.54 33.1 627.4 33.1 627.4 42.79"/>
      <polygon points="689.44 42.79 689.44 33.1 673.3 33.1 673.3 42.79 679.95 42.79 682.8 42.79 689.44 42.79"/>
      <rect x="725.37" y="33.29" width="15.19" height="9.5"/>
      <polygon points="595.3 27.68 595.3 35.19 595.3 35.38 595.3 42.79 597.2 42.79 600.05 42.79 610.5 42.79 610.5 35.19 604.8 35.19 604.8 27.68 595.3 27.68"/>
      <path d="M691.5,28.54v14.24h15.19v-5.66h.95v.46h.95v-2.85h-.95v.46h-.95v-1.67h.95v.46h.95v-2.85h-.95v.46h-.95v-3.04h-15.19ZM707.65,35.68v.95h-.95v-.95h.95ZM707.65,32.07v.95h-.95v-.95h.95Z"/>
      <rect x="645.37" y="10.48" width="22.36" height="32.3"/>
      <polygon points="667.77 31.36 667.77 32.01 669.01 32.01 669.01 33.25 671.5 33.25 671.5 27.04 669.01 27.04 669.01 28.88 667.77 28.88 667.77 29.52 669.01 29.52 669.01 31.36 667.77 31.36"/>
      <polygon points="667.77 23.91 667.77 24.55 669.01 24.55 669.01 25.8 671.5 25.8 671.5 19.59 669.01 19.59 669.01 21.43 667.77 21.43 667.77 22.07 669.01 22.07 669.01 23.91 667.77 23.91"/>
      <polygon points="667.77 16.46 667.77 17.1 669.01 17.1 669.01 18.34 671.5 18.34 671.5 12.13 669.01 12.13 669.01 13.97 667.77 13.97 667.77 14.62 669.01 14.62 669.01 16.46 667.77 16.46"/>
      <rect x="418.73" y="20.94" width="18.99" height="21.84"/>
      <path d="M538.52,29.59h-.87v-.46h-.95v2.85h.95v-.46h.87v1.73h-.87v-.46h-.95v2.85h.95v-.46h.87v1.73h-.87v-.46h-.95v2.85h.95v-.46h.87v3.93h35.14V8.6h-35.14v20.99ZM538.52,38.36h-.87v-.95h.87v.95ZM538.52,34.7h-.87v-.95h.87v.95ZM538.52,31.03h-.87v-.95h.87v.95Z"/>
      <path d="M576.34,29.32s-.06-.02-.09,0h-.01s-.32.01-.32.01v12.46c0,.82.37.99.83.99s.83-.17.83-.99v-9.61h.02s.05-.04.05-.07c.03,0,.06,0,.1-.01,0,.03.03.05.06.05,0,0,0,0,0,0h.02s.05-.04.05-.07c.05,0,.1-.02.16-.02l.02.06v-.06s.01.06.01.06c.03,0,.06-.03.05-.07.05,0,.11,0,.16-.02l.02.06v-.06s.01.06.01.06c.03,0,.06-.03.05-.06.03,0,.06,0,.1,0,0,.03.03.05.06.05h.03s.06-.03.06-.07c.03,0,.06,0,.1,0,0,.03.03.06.06.06h.03s.06-.03.06-.07c.03,0,.06,0,.1,0,0,.03.03.06.06.06,0,0,0,0,0,0h.02s.06-.03.06-.06c.03,0,.06,0,.1,0,0,.03.03.06.06.06h.02s.06-.03.06-.07c.03,0,.07,0,.1,0,0,.03.03.06.06.06,0,0,0,0,0,0h.02s.06-.03.06-.06c.03,0,.07,0,.1,0,0,.03.03.06.06.06h.02s.06-.03.06-.06c.03,0,.06,0,.1,0,0,.03.03.06.06.06h.02s.06-.03.06-.06c.03,0,.07,0,.1,0,0,.03.03.06.06.06h.02s.06-.03.06-.06c.03,0,.06,0,.1,0,0,.03.03.06.06.06h.02s.06-.03.06-.06c.03,0,.06,0,.1,0,0,.03.03.06.06.06h.02s.06-.03.06-.06c.03,0,.06,0,.1,0,0,.03.03.06.06.06h.02s.06-.03.06-.06c.03,0,.06,0,.1,0,0,.03.03.06.06.06h.02s.06-.03.06-.06c.03,0,.06,0,.1,0,0,.03.03.06.06.06h.02s.06-.03.06-.06c.03,0,.06,0,.1,0,0,.03.03.06.06.06h.02s.06-.03.06-.06c.03,0,.06,0,.1,0,0,.03.03.06.06.06h.02s.06-.03.06-.06c.03,0,.06,0,.1,0,0,.03.03.06.06.06h.02s.06-.03.06-.06h.1s.03.06.06.06h.02s.06-.03.06-.06h.1s.03.06.06.06h.02s.06-.03.06-.06h.1s.03.06.06.06h.02s.06-.03.06-.06h.1s.03.06.06.06h.02s.06-.03.06-.06c.03,0,.07,0,.1,0,0,.03.03.06.06.06h.02s.06-.03.06-.06h.1s.03.06.06.06h.02s.06-.03.06-.06c.03,0,.06,0,.1,0,0,.03.03.06.06.06h.02s.06-.03.06-.06c.03,0,.06,0,.1,0,0,.03.03.06.06.06h.02s.06-.03.06-.06c.03,0,.06,0,.1,0h0s.03.06.06.06h.02s.06-.03.06-.06h.1s.03.06.06.06h.02s.06-.03.06-.06h.1s.03.06.06.06h.02s.06-.03.06-.06h0s.06,0,.1,0c0,.03.03.06.06.06h.02s.06-.03.06-.06h.1s.03.06.06.06h.02s.06-.03.06-.06h0s.06,0,.1,0h0s.03.06.06.06h.02s.06-.03.06-.06h.1s.03.06.06.06h.02s.06-.03.06-.06h0s.06,0,.1,0h0s.03.06.06.06h.02s.06-.03.06-.06h0s.06,0,.1,0c0,0,0,0,0,0,0,.03.03.06.06.06h.02s.06-.03.06-.06c.03,0,.06,0,.1,0h0s.03.06.06.06h.02s.06-.03.06-.06h.1s.03.06.06.06h.02s.06-.03.06-.06h.1s.03.06.06.06h.02s.06-.03.06-.06h.1s.03.06.06.06h.02s.06-.03.06-.06c.03,0,.06,0,.1,0,0,.03.03.06.06.06h.02s.06-.03.06-.06c.03,0,.06,0,.1,0,0,.03.03.06.06.06h.02s.06-.03.06-.06c.03,0,.06,0,.1,0,0,.03.03.06.06.06h.02s.06-.03.06-.06c.03,0,.06,0,.1,0,0,.03.03.06.06.06h.02s.06-.03.06-.06c.03,0,.06,0,.1,0,0,.03.03.06.06.06h.02s0,0,0,0c.03,0,.06-.03.06-.06.03,0,.06,0,.1,0,0,.03.03.06.06.06h.02s.06-.03.06-.06c.03,0,.07,0,.1,0,0,.03.03.06.06.06h.02s0,0,0,0c.03,0,.06-.03.06-.06.03,0,.06,0,.1,0,0,.03.03.06.06.06h.02s0,0,0,0c.03,0,.06-.03.06-.06.03,0,.07,0,.1,0,0,.03.03.06.06.06h.02s0,0,0,0c.03,0,.06-.03.06-.06.05,0,.11,0,.16,0v.06s.02-.06.02-.06v.06s0,0,0,0c.03,0,.06-.03.06-.06.03,0,.06,0,.1,0,0,.03.02.06.06.06h.02s0,0,0,0c.03,0,.06-.03.06-.06.03,0,.07,0,.1,0,0,.03.02.06.06.06h.02s0,0,0,0c.03,0,.06-.03.06-.06.03,0,.06,0,.1,0,0,.03.02.06.06.06h.02s0,0,0,0c.03,0,.06-.02.06-.06.03,0,.06,0,.1,0,0,.03.02.06.06.06h.02s0,0,0,0c.03,0,.06-.02.06-.06.03,0,.07,0,.1,0,0,.03.02.06.06.07h.02s0,0,0,0c.03,0,.06-.02.06-.06.03,0,.06,0,.1,0,0,.03.02.06.05.06h.02s0,0,0,0c.03,0,.06-.02.06-.05.03,0,.07,0,.1,0,0,.03.02.06.05.07h.02s0,0,0,0c.03,0,.06-.02.06-.05.03,0,.06,0,.1.01,0,.03.02.06.05.07h.02s0,0,0,0c.03,0,.05-.02.06-.05.03,0,.07,0,.1.01,0,.03.02.06.05.07h.02s0,0,0,0c.03,0,.06-.02.06-.05.02,0,.03,0,.04,0v9.66c0,.82.37.99.83.99s.83-.17.83-.99v-12.46h-.45s0,0,0,0c0,0,0,0,0,0,.02-.03.02-.06,0-.09l-.02-.02s-.06-.02-.09,0c0,0,0,0,0,0-.03-.02-.05-.04-.08-.06,0,0,0,0,0,0,.02-.03,0-.07-.02-.08h-.02s-.07-.02-.09,0c0,0,0,0,0,0-.03-.02-.06-.04-.09-.05,0,0,0,0,0,0,.01-.03,0-.07-.03-.09h-.01s-.07,0-.08.03c0,0,0,0,0,0-.03-.01-.06-.03-.09-.04,0,0,0,0,0,0,.01-.03,0-.07-.04-.08h-.02s-.07,0-.08.03c0,0,0,0,0,0-.03-.01-.06-.03-.1-.04,0,0,0,0,0,0,.01-.03-.01-.07-.04-.08,0,0-.01,0-.01,0-.03-.01-.07,0-.08.04,0,0,0,0,0,0-.03,0-.06-.02-.1-.03,0,0,0,0,0,0,0-.03,0-.07-.04-.08h-.02s-.07,0-.08.04c0,0,0,0,0,0-.03,0-.06-.02-.09-.03,0,0,0,0,0,0,0-.03-.01-.07-.05-.07h-.02s-.07,0-.07.04c0,0,0,0,0,0-.03,0-.07-.02-.1-.02,0,0,0,0,0,0,0-.03-.02-.07-.05-.07h-.01s-.07.01-.07.05c0,0,0,0,0,0-.03,0-.06-.01-.1-.02,0,0,0,0,0,0,0-.03-.02-.07-.05-.07h-.02s-.07.01-.07.04c0,0,0,0,0,0-.03,0-.06-.01-.1-.02,0,0,0,0,0,0,0-.03-.02-.07-.05-.07h-.02s-.07.01-.07.05c0,0,0,0,0,0-.03,0-.06-.01-.1-.02,0,0,0,0,0,0,0-.03-.02-.07-.05-.07h-.02s-.07.01-.07.05c0,0,0,0,0,0-.03,0-.07,0-.1-.01,0,0,0,0,0,0,0-.03-.02-.07-.05-.07h-.02s-.06.02-.07.05c0,0,0,0,0,0-.03,0-.06,0-.1-.01,0,0,0,0,0,0,0-.03-.02-.06-.05-.07h-.02s-.06.02-.07.05h0s-.06,0-.1-.01c0,0,0,0,0,0,0-.03-.02-.06-.05-.07h-.02s-.06.02-.07.05c0,0,0,0,0,0-.03,0-.07,0-.1-.01,0,0,0,0,0,0,0-.03-.02-.06-.06-.07h-.02s-.06.02-.07.05c0,0,0,0,0,0-.03,0-.06,0-.1-.01,0,0,0,0,0,0,0-.03-.02-.06-.06-.07h-.02s-.06.02-.07.05h0s-.06,0-.1,0c0,0,0,0,0,0,0-.03-.02-.06-.06-.07h-.02s-.06.02-.07.05c0,0,0,0,0,0-.03,0-.06,0-.1,0,0,0,0,0,0,0,0-.03-.02-.06-.06-.07h-.02s-.06.02-.07.06c0,0,0,0,0,0-.03,0-.06,0-.1,0,0,0,0,0,0,0,0-.03-.02-.06-.06-.07h-.02s-.06.02-.07.06h0s-.07,0-.1,0c0,0,0,0,0,0,0-.03-.02-.06-.06-.07h-.02s-.06.02-.07.06c0,0,0,0,0,0-.03,0-.06,0-.1,0,0,0,0,0,0,0,0-.03-.02-.06-.06-.07h-.02s-.06.02-.07.06c0,0,0,0,0,0-.03,0-.06,0-.1,0,0,0,0,0,0,0,0-.03-.02-.06-.06-.07h-.02s0,0,0,0c-.03,0-.06.03-.06.06-.03,0-.06,0-.1,0,0,0,0,0,0,0,0-.03-.03-.06-.06-.06h-.02s0,0,0,0c-.03,0-.06.03-.06.06,0,0,0,0,0,0-.03,0-.06,0-.1,0,0,0,0,0,0,0,0-.03-.02-.06-.06-.07h-.02s0,0,0,0c-.03,0-.06.03-.06.06,0,0,0,0,0,0-.03,0-.06,0-.1,0,0,0,0,0,0,0,0-.03-.03-.06-.06-.06h-.02s0,0,0,0c-.03,0-.06.03-.06.06,0,0,0,0,0,0-.03,0-.06,0-.1,0,0-.03-.03-.06-.06-.06h-.02s-.06.03-.06.06c0,0,0,0,0,0-.03,0-.06,0-.1,0,0,0,0,0,0,0,0-.03-.03-.06-.06-.06h-.02s-.06.03-.06.06c0,0,0,0,0,0-.03,0-.06,0-.1,0,0,0,0,0,0,0,0-.03-.03-.06-.06-.06h-.02s-.06.03-.06.06c0,0,0,0,0,0-.03,0-.06,0-.1,0h0s-.03-.06-.06-.06h-.02s0,0,0,0c-.03,0-.06.03-.06.06h0s-.07,0-.1,0c0,0,0,0,0,0,0-.03-.03-.06-.06-.06h-.02s-.06.03-.06.06c0,0,0,0,0,0-.03,0-.06,0-.1,0,0,0,0,0,0,0,0-.03-.03-.06-.06-.06h-.02s-.06.03-.06.06c0,0,0,0,0,0-.03,0-.06,0-.1,0,0,0,0,0,0,0,0-.03-.03-.06-.06-.06h-.02s-.06.03-.06.06h0s-.06,0-.1,0c0-.03-.03-.06-.06-.06h-.02s-.06.03-.06.06h-.1s0,0,0,0c0-.03-.03-.06-.06-.06h-.02s-.06.03-.06.06c0,0,0,0,0,0h-.1s-.03-.06-.06-.06h-.02s-.06.03-.06.06c0,0,0,0,0,0-.03,0-.06,0-.1,0h0s-.03-.06-.06-.06h-.02s-.06.03-.06.06h0s-.06,0-.1,0c0,0,0,0,0,0,0-.03-.03-.06-.06-.06h-.02s-.06.03-.06.06c0,0,0,0,0,0-.03,0-.06,0-.1,0,0,0,0,0,0,0,0-.03-.03-.06-.06-.06h-.02s-.06.03-.06.06c0,0,0,0,0,0-.03,0-.06,0-.1,0h0s-.03-.06-.06-.06h-.02s-.06.03-.06.06c0,0,0,0,0,0-.03,0-.06,0-.1,0,0-.03-.03-.06-.06-.06h-.02s-.06.03-.06.06h0s-.06,0-.1,0c0,0,0,0,0,0,0-.03-.03-.06-.06-.06h-.02s-.06.03-.06.06c0,0,0,0,0,0-.03,0-.06,0-.1,0,0,0,0,0,0,0,0-.03-.03-.06-.06-.06h-.02s-.06.03-.06.06h0s-.06,0-.1,0c0,0,0,0,0,0,0-.03-.03-.06-.06-.06h-.02s-.06.03-.06.06h0s-.06,0-.1,0h0s-.03-.06-.06-.06h-.02s-.06.03-.06.06c0,0,0,0,0,0-.03,0-.06,0-.1,0,0,0,0,0,0,0,0-.03-.03-.06-.06-.06h-.02s-.06.03-.06.06c0,0,0,0,0,0-.03,0-.07,0-.1,0,0,0,0,0,0,0,0-.03-.03-.06-.06-.06h-.02s-.06.03-.06.06c0,0,0,0,0,0-.03,0-.07,0-.1,0,0-.03-.03-.06-.06-.06h-.02s-.06.03-.06.06h0s-.06,0-.1,0c0,0,0,0,0,0,0-.03-.03-.06-.06-.06h-.02s-.06.03-.06.07c0,0,0,0,0,0-.03,0-.06,0-.1,0,0,0,0,0,0,0,0-.03-.03-.06-.06-.06h-.03s-.06.03-.06.07c0,0,0,0,0,0-.03,0-.07,0-.1,0,0,0,0,0,0,0,0-.03-.02-.06-.06-.06h-.02s-.06.03-.06.07c0,0,0,0,0,0-.03,0-.06,0-.1,0,0,0,0,0,0,0,0-.03-.03-.06-.06-.06h-.03s-.06.03-.06.07c0,0,0,0,0,0-.03,0-.06,0-.1,0,0,0,0,0,0,0,0-.03-.03-.06-.07-.06h-.02s-.06.03-.06.07c0,0,0,0,0,0-.03,0-.07,0-.1,0,0,0,0,0,0,0,0-.03-.03-.06-.07-.06h-.02s-.06.03-.06.07h0s-.06,0-.1,0h0s-.03-.06-.07-.06h-.02s-.06.03-.06.07c0,0,0,0,0,0-.03,0-.06,0-.1,0,0,0,0,0,0,0,0-.03-.04-.06-.07-.06h-.02s-.06.03-.06.07c0,0,0,0,0,0-.03,0-.07,0-.1,0,0,0,0,0,0,0,0-.03-.04-.06-.07-.06h-.02s-.06.03-.06.07h0s-.06,0-.1.01c0,0,0,0,0,0,0-.03-.03-.06-.07-.06h-.02s-.06.04-.06.07c0,0,0,0,0,0-.03,0-.07,0-.1,0,0,0,0,0,0,0,0-.03-.04-.06-.07-.05h-.02s-.06.04-.05.07c0,0,0,0,0,0-.03,0-.07,0-.1,0,0,0,0,0,0,0,0-.03-.03-.06-.07-.05h-.02s-.06.04-.05.07c0,0,0,0,0,0-.03,0-.06,0-.1.01,0,0,0,0,0,0,0-.03-.04-.06-.07-.05h-.02s-.06.04-.05.07c0,0,0,0,0,0-.03,0-.07,0-.1.01,0,0,0,0,0,0,0-.03-.04-.06-.07-.05h-.02s-.06.04-.05.07c0,0,0,0,0,0-.03,0-.06,0-.1.01,0,0,0,0,0,0,0-.03-.03-.06-.07-.05h-.02s-.06.04-.05.07c0,0,0,0,0,0-.03,0-.06.01-.1.02,0,0,0,0,0,0,0-.03-.04-.06-.07-.05h-.02s-.06.04-.05.08c0,0,0,0,0,0-.03,0-.07.01-.1.02h0s-.05-.05-.08-.05c0,0-.01,0-.01,0-.03,0-.06.04-.05.07,0,0,0,0,0,0-.03,0-.06.01-.1.02,0,0,0,0,0,0,0-.03-.04-.05-.08-.05h-.02s-.05.05-.05.08c0,0,0,0,0,0-.03,0-.07.01-.1.02,0,0,0,0,0,0,0-.03-.04-.05-.08-.04h-.02s-.05.05-.04.08c0,0,0,0,0,0-.03,0-.07.02-.1.03,0,0,0,0,0,0-.01-.03-.05-.05-.08-.04h-.01s-.05.05-.04.08c0,0,0,0,0,0-.03.01-.07.02-.1.03,0,0,0,0,0,0-.01-.03-.05-.05-.09-.04,0,0,0,0,0,0-.03.01-.05.05-.04.08,0,0,0,0,0,0-.03.01-.06.03-.09.04,0,0,0,0,0,0-.01-.03-.05-.05-.08-.03h-.02s-.05.06-.03.09c0,0,0,0,0,0-.03.01-.06.03-.09.04,0,0,0,0,0,0-.02-.03-.05-.04-.08-.02h-.02s-.04.06-.03.09c0,0,0,0,0,0-.03.02-.06.03-.09.05,0,0,0,0,0,0-.02-.03-.06-.03-.09-.01h-.02s-.03.07-.01.1c0,0,0,0,0,0-.03.02-.05.04-.08.07,0,0,0,0,0,0Z"/>
      <polygon points="504.67 37.09 506.77 37.09 506.77 42.79 508.67 42.79 511.52 42.79 533.36 42.79 533.36 37.09 535.46 37.09 535.46 14.3 504.67 14.3 504.67 37.09"/>
      <rect x="404.09" y="18.09" width="13.3" height="24.69"/>
      <path d="M724.83,41.4v-1.19h-1.89v1.19h.76v.72h-.85c-.08,0-.14.06-.14.14s.06.14.14.14h2.14c.08,0,.14-.06.14-.14s-.06-.14-.14-.14h-.9v-.72h.74Z"/>
      <path d="M709.47,41.4v-1.19h-1.89v1.19h.76v.72h-.85c-.08,0-.14.06-.14.14s.06.14.14.14h2.14s.07-.02.09-.04v.42h12.35v-9.68h-12.35v9.05s-.06-.04-.09-.04h-.9v-.72h.74Z"/>
      <rect class="cls-1" x="395.54" y="25.69" width="3.8" height="3.8"/>
      <g>
        <rect class="cls-1" x="387.55" y="25.69" width="3.8" height="3.8"/>
        <rect class="cls-1" x="387.55" y="36.14" width="3.8" height="3.8"/>
      </g>
      <rect class="cls-1" x="379.01" y="25.69" width="3.8" height="3.8"/>
      <g>
        <rect class="cls-1" x="444.66" y="17.94" width="9.66" height="4.14"/>
        <rect class="cls-1" x="457.08" y="17.94" width="9.66" height="4.14"/>
      </g>
      <g>
        <rect class="cls-1" x="444.66" y="27.59" width="9.66" height="4.14"/>
        <rect class="cls-1" x="457.08" y="27.59" width="9.66" height="4.14"/>
      </g>
      <g>
        <rect class="cls-1" x="444.66" y="37.25" width="9.66" height="4.14"/>
        <rect class="cls-1" x="457.08" y="37.25" width="9.66" height="4.14"/>
      </g>
      <path class="cls-1" d="M498.88,24.73c-.79,0-1.43.43-1.43.95v6.65h2.86v-6.65c0-.52-.64-.95-1.43-.95Z"/>
      <path class="cls-1" d="M493.21,24.73c-.79,0-1.43.43-1.43.95v6.65h2.86v-6.65c0-.52-.64-.95-1.43-.95Z"/>
      <path class="cls-1" d="M487.52,24.73c-.79,0-1.43.43-1.43.95v6.65h2.86v-6.65c0-.52-.64-.95-1.43-.95Z"/>
      <rect class="cls-1" x="619.86" y="38.04" width="2.85" height="2.85"/>
      <path class="cls-1" d="M640.69,38.04c0-.52-.42-.95-.95-.95s-.95.42-.95.95h0v2.85h1.9v-2.85h0Z"/>
      <path class="cls-1" d="M632.15,38.04c0-.52-.43-.95-.95-.95s-.95.42-.95.95h0v2.85h1.9v-2.85h0Z"/>
      <rect class="cls-1" x="684.7" y="38.04" width="3.8" height="2.85"/>
      <rect class="cls-1" x="674.25" y="38.04" width="3.8" height="2.85"/>
      <rect class="cls-1" x="727.27" y="38.04" width="5.7" height="2.85"/>
      <path class="cls-1" d="M719.22,38.04c0-.52-.42-.95-.95-.95s-.95.42-.95.95h0v2.85h1.9v-2.85h0Z"/>
      <rect class="cls-1" x="602.9" y="38.04" width="3.8" height="2.85"/>
      <rect class="cls-1" x="597.2" y="29.68" width="5.7" height="5.7"/>
      <rect class="cls-1" x="693.4" y="31.39" width="2.82" height="2.85"/>
      <rect class="cls-1" x="697.2" y="31.39" width="2.82" height="2.85"/>
      <rect class="cls-1" x="655.31" y="21.67" width="9.94" height="3.71"/>
      <rect class="cls-1" x="647.85" y="21.67" width="3.73" height="3.71"/>
      <rect class="cls-1" x="647.85" y="14.2" width="3.73" height="3.71"/>
      <rect class="cls-1" x="647.85" y="29.12" width="17.39" height="3.71"/>
      <rect class="cls-1" x="647.85" y="36.58" width="17.39" height="3.71"/>
      <path class="cls-1" d="M433.42,24.73c-.79,0-1.43.43-1.43.95v6.65h2.86v-6.65c0-.52-.64-.95-1.43-.95Z"/>
      <path class="cls-1" d="M427.76,24.73c-.79,0-1.43.43-1.43.95v6.65h2.86v-6.65c0-.52-.64-.95-1.43-.95Z"/>
      <path class="cls-1" d="M422.06,24.73c-.79,0-1.43.43-1.43.95v6.65h2.86v-6.65c0-.52-.64-.95-1.43-.95Z"/>
      <rect class="cls-1" x="567.01" y="12.4" width="3.8" height="3.8"/>
      <rect class="cls-1" x="567.01" y="19.05" width="3.8" height="3.8"/>
      <rect class="cls-1" x="567.01" y="25.69" width="3.8" height="3.8"/>
      <rect class="cls-1" x="558.46" y="12.4" width="3.8" height="3.8"/>
      <rect class="cls-1" x="558.46" y="19.05" width="3.8" height="3.8"/>
      <rect class="cls-1" x="558.46" y="25.69" width="3.8" height="3.8"/>
      <g>
        <rect class="cls-1" x="549.92" y="12.4" width="3.8" height="3.8"/>
        <rect class="cls-1" x="549.92" y="19.05" width="3.8" height="3.8"/>
        <rect class="cls-1" x="549.92" y="25.69" width="3.8" height="3.8"/>
      </g>
      <rect class="cls-1" x="541.37" y="12.4" width="3.8" height="3.8"/>
      <rect class="cls-1" x="541.37" y="19.05" width="3.8" height="3.8"/>
      <rect class="cls-1" x="541.37" y="25.69" width="3.8" height="3.8"/>
      <g>
        <rect class="cls-1" x="414.64" y="20.43" width="1.15" height="4.21"/>
        <rect class="cls-1" x="414.64" y="26.18" width="1.15" height="4.21"/>
        <rect class="cls-1" x="414.64" y="31.92" width="1.15" height="4.21"/>
      </g>
    </g>
  </g>
  <g>
    <rect y="42.55" width="372.25" height="5.31"/>
    <g>
      <polygon points="30.57 32.34 30.57 21.9 4.54 21.9 4.54 32.34 4.54 42.79 30.57 42.79 30.57 32.34"/>
      <polygon points="110.3 0 95.12 .02 95.12 11.04 68.91 11.05 68.91 42.79 110.3 42.75 110.3 0"/>
      <rect x="112.58" y="20.94" width="18.99" height="21.84"/>
      <path d="M253,36.22l-6.22-6.83-5.17,6.83h.95v6.57h9.5v-2.81h.95v.46h.95v-2.85h-.95v.46h-.95v-1.82h.95ZM253,38.53v.95h-.95v-.95h.95Z"/>
      <polygon points="255.79 42.79 262.43 42.79 265.28 42.79 271.93 42.79 271.93 33.1 255.79 33.1 255.79 42.79"/>
      <polygon points="317.83 42.79 317.83 33.1 301.69 33.1 301.69 42.79 308.34 42.79 311.19 42.79 317.83 42.79"/>
      <rect x="353.76" y="33.29" width="15.19" height="9.5"/>
      <polygon points="223.69 27.68 223.69 35.19 223.69 35.38 223.69 42.79 225.59 42.79 228.44 42.79 238.88 42.79 238.88 35.19 233.19 35.19 233.19 27.68 223.69 27.68"/>
      <path d="M319.89,28.54v14.24h15.19v-5.66h.95v.46h.95v-2.85h-.95v.46h-.95v-1.67h.95v.46h.95v-2.85h-.95v.46h-.95v-3.04h-15.19ZM336.04,35.68v.95h-.95v-.95h.95ZM336.04,32.07v.95h-.95v-.95h.95Z"/>
      <rect x="273.76" y="10.48" width="22.36" height="32.3"/>
      <polygon points="296.16 31.36 296.16 32.01 297.4 32.01 297.4 33.25 299.89 33.25 299.89 27.04 297.4 27.04 297.4 28.88 296.16 28.88 296.16 29.52 297.4 29.52 297.4 31.36 296.16 31.36"/>
      <polygon points="296.16 23.91 296.16 24.55 297.4 24.55 297.4 25.8 299.89 25.8 299.89 19.59 297.4 19.59 297.4 21.43 296.16 21.43 296.16 22.07 297.4 22.07 297.4 23.91 296.16 23.91"/>
      <polygon points="296.16 16.46 296.16 17.1 297.4 17.1 297.4 18.34 299.89 18.34 299.89 12.13 297.4 12.13 297.4 13.97 296.16 13.97 296.16 14.62 297.4 14.62 297.4 16.46 296.16 16.46"/>
      <rect x="47.12" y="20.94" width="18.99" height="21.84"/>
      <path d="M166.91,29.59h-.87v-.46h-.95v2.85h.95v-.46h.87v1.73h-.87v-.46h-.95v2.85h.95v-.46h.87v1.73h-.87v-.46h-.95v2.85h.95v-.46h.87v3.93h35.14V8.6h-35.14v20.99ZM166.91,38.36h-.87v-.95h.87v.95ZM166.91,34.7h-.87v-.95h.87v.95ZM166.91,31.03h-.87v-.95h.87v.95Z"/>
      <path d="M204.72,29.32s-.06-.02-.09,0h-.01s-.32.01-.32.01v12.46c0,.82.37.99.83.99s.83-.17.83-.99v-9.61h.02s.05-.04.05-.07c.03,0,.06,0,.1-.01,0,.03.03.05.06.05,0,0,0,0,0,0h.02s.05-.04.05-.07c.05,0,.1-.02.16-.02l.02.06v-.06s.01.06.01.06c.03,0,.06-.03.05-.07.05,0,.11,0,.16-.02l.02.06v-.06s.01.06.01.06c.03,0,.06-.03.05-.06.03,0,.06,0,.1,0,0,.03.03.05.06.05h.03s.06-.03.06-.07c.03,0,.06,0,.1,0,0,.03.03.06.06.06h.03s.06-.03.06-.07c.03,0,.06,0,.1,0,0,.03.03.06.06.06,0,0,0,0,0,0h.02s.06-.03.06-.06c.03,0,.06,0,.1,0,0,.03.03.06.06.06h.02s.06-.03.06-.07c.03,0,.07,0,.1,0,0,.03.03.06.06.06,0,0,0,0,0,0h.02s.06-.03.06-.06c.03,0,.07,0,.1,0,0,.03.03.06.06.06h.02s.06-.03.06-.06c.03,0,.06,0,.1,0,0,.03.03.06.06.06h.02s.06-.03.06-.06c.03,0,.07,0,.1,0,0,.03.03.06.06.06h.02s.06-.03.06-.06c.03,0,.06,0,.1,0,0,.03.03.06.06.06h.02s.06-.03.06-.06c.03,0,.06,0,.1,0,0,.03.03.06.06.06h.02s.06-.03.06-.06c.03,0,.06,0,.1,0,0,.03.03.06.06.06h.02s.06-.03.06-.06c.03,0,.06,0,.1,0,0,.03.03.06.06.06h.02s.06-.03.06-.06c.03,0,.06,0,.1,0,0,.03.03.06.06.06h.02s.06-.03.06-.06c.03,0,.06,0,.1,0,0,.03.03.06.06.06h.02s.06-.03.06-.06c.03,0,.06,0,.1,0,0,.03.03.06.06.06h.02s.06-.03.06-.06c.03,0,.06,0,.1,0,0,.03.03.06.06.06h.02s.06-.03.06-.06h.1s.03.06.06.06h.02s.06-.03.06-.06h.1s.03.06.06.06h.02s.06-.03.06-.06h.1s.03.06.06.06h.02s.06-.03.06-.06h.1s.03.06.06.06h.02s.06-.03.06-.06c.03,0,.07,0,.1,0,0,.03.03.06.06.06h.02s.06-.03.06-.06h.1s.03.06.06.06h.02s.06-.03.06-.06c.03,0,.06,0,.1,0,0,.03.03.06.06.06h.02s.06-.03.06-.06c.03,0,.06,0,.1,0,0,.03.03.06.06.06h.02s.06-.03.06-.06c.03,0,.06,0,.1,0h0s.03.06.06.06h.02s.06-.03.06-.06h.1s.03.06.06.06h.02s.06-.03.06-.06h.1s.03.06.06.06h.02s.06-.03.06-.06h0s.06,0,.1,0c0,.03.03.06.06.06h.02s.06-.03.06-.06h.1s.03.06.06.06h.02s.06-.03.06-.06h0s.06,0,.1,0h0s.03.06.06.06h.02s.06-.03.06-.06h.1s.03.06.06.06h.02s.06-.03.06-.06h0s.06,0,.1,0h0s.03.06.06.06h.02s.06-.03.06-.06h0s.06,0,.1,0c0,0,0,0,0,0,0,.03.03.06.06.06h.02s.06-.03.06-.06c.03,0,.06,0,.1,0h0s.03.06.06.06h.02s.06-.03.06-.06h.1s.03.06.06.06h.02s.06-.03.06-.06h.1s.03.06.06.06h.02s.06-.03.06-.06h.1s.03.06.06.06h.02s.06-.03.06-.06c.03,0,.06,0,.1,0,0,.03.03.06.06.06h.02s.06-.03.06-.06c.03,0,.06,0,.1,0,0,.03.03.06.06.06h.02s.06-.03.06-.06c.03,0,.06,0,.1,0,0,.03.03.06.06.06h.02s.06-.03.06-.06c.03,0,.06,0,.1,0,0,.03.03.06.06.06h.02s.06-.03.06-.06c.03,0,.06,0,.1,0,0,.03.03.06.06.06h.02s0,0,0,0c.03,0,.06-.03.06-.06.03,0,.06,0,.1,0,0,.03.03.06.06.06h.02s.06-.03.06-.06c.03,0,.07,0,.1,0,0,.03.03.06.06.06h.02s0,0,0,0c.03,0,.06-.03.06-.06.03,0,.06,0,.1,0,0,.03.03.06.06.06h.02s0,0,0,0c.03,0,.06-.03.06-.06.03,0,.07,0,.1,0,0,.03.03.06.06.06h.02s0,0,0,0c.03,0,.06-.03.06-.06.05,0,.11,0,.16,0v.06s.02-.06.02-.06v.06s0,0,0,0c.03,0,.06-.03.06-.06.03,0,.06,0,.1,0,0,.03.02.06.06.06h.02s0,0,0,0c.03,0,.06-.03.06-.06.03,0,.07,0,.1,0,0,.03.02.06.06.06h.02s0,0,0,0c.03,0,.06-.03.06-.06.03,0,.06,0,.1,0,0,.03.02.06.06.06h.02s0,0,0,0c.03,0,.06-.02.06-.06.03,0,.06,0,.1,0,0,.03.02.06.06.06h.02s0,0,0,0c.03,0,.06-.02.06-.06.03,0,.07,0,.1,0,0,.03.02.06.06.07h.02s0,0,0,0c.03,0,.06-.02.06-.06.03,0,.06,0,.1,0,0,.03.02.06.05.06h.02s0,0,0,0c.03,0,.06-.02.06-.05.03,0,.07,0,.1,0,0,.03.02.06.05.07h.02s0,0,0,0c.03,0,.06-.02.06-.05.03,0,.06,0,.1.01,0,.03.02.06.05.07h.02s0,0,0,0c.03,0,.05-.02.06-.05.03,0,.07,0,.1.01,0,.03.02.06.05.07h.02s0,0,0,0c.03,0,.06-.02.06-.05.02,0,.03,0,.04,0v9.66c0,.82.37.99.83.99s.83-.17.83-.99v-12.46h-.45s0,0,0,0c0,0,0,0,0,0,.02-.03.02-.06,0-.09l-.02-.02s-.06-.02-.09,0c0,0,0,0,0,0-.03-.02-.05-.04-.08-.06,0,0,0,0,0,0,.02-.03,0-.07-.02-.08h-.02s-.07-.02-.09,0c0,0,0,0,0,0-.03-.02-.06-.04-.09-.05,0,0,0,0,0,0,.01-.03,0-.07-.03-.09h-.01s-.07,0-.08.03c0,0,0,0,0,0-.03-.01-.06-.03-.09-.04,0,0,0,0,0,0,.01-.03,0-.07-.04-.08h-.02s-.07,0-.08.03c0,0,0,0,0,0-.03-.01-.06-.03-.1-.04,0,0,0,0,0,0,.01-.03-.01-.07-.04-.08,0,0-.01,0-.01,0-.03-.01-.07,0-.08.04,0,0,0,0,0,0-.03,0-.06-.02-.1-.03,0,0,0,0,0,0,0-.03,0-.07-.04-.08h-.02s-.07,0-.08.04c0,0,0,0,0,0-.03,0-.06-.02-.09-.03,0,0,0,0,0,0,0-.03-.01-.07-.05-.07h-.02s-.07,0-.07.04c0,0,0,0,0,0-.03,0-.07-.02-.1-.02,0,0,0,0,0,0,0-.03-.02-.07-.05-.07h-.01s-.07.01-.07.05c0,0,0,0,0,0-.03,0-.06-.01-.1-.02,0,0,0,0,0,0,0-.03-.02-.07-.05-.07h-.02s-.07.01-.07.04c0,0,0,0,0,0-.03,0-.06-.01-.1-.02,0,0,0,0,0,0,0-.03-.02-.07-.05-.07h-.02s-.07.01-.07.05c0,0,0,0,0,0-.03,0-.06-.01-.1-.02,0,0,0,0,0,0,0-.03-.02-.07-.05-.07h-.02s-.07.01-.07.05c0,0,0,0,0,0-.03,0-.07,0-.1-.01,0,0,0,0,0,0,0-.03-.02-.07-.05-.07h-.02s-.06.02-.07.05c0,0,0,0,0,0-.03,0-.06,0-.1-.01,0,0,0,0,0,0,0-.03-.02-.06-.05-.07h-.02s-.06.02-.07.05h0s-.06,0-.1-.01c0,0,0,0,0,0,0-.03-.02-.06-.05-.07h-.02s-.06.02-.07.05c0,0,0,0,0,0-.03,0-.07,0-.1-.01,0,0,0,0,0,0,0-.03-.02-.06-.06-.07h-.02s-.06.02-.07.05c0,0,0,0,0,0-.03,0-.06,0-.1-.01,0,0,0,0,0,0,0-.03-.02-.06-.06-.07h-.02s-.06.02-.07.05h0s-.06,0-.1,0c0,0,0,0,0,0,0-.03-.02-.06-.06-.07h-.02s-.06.02-.07.05c0,0,0,0,0,0-.03,0-.06,0-.1,0,0,0,0,0,0,0,0-.03-.02-.06-.06-.07h-.02s-.06.02-.07.06c0,0,0,0,0,0-.03,0-.06,0-.1,0,0,0,0,0,0,0,0-.03-.02-.06-.06-.07h-.02s-.06.02-.07.06h0s-.07,0-.1,0c0,0,0,0,0,0,0-.03-.02-.06-.06-.07h-.02s-.06.02-.07.06c0,0,0,0,0,0-.03,0-.06,0-.1,0,0,0,0,0,0,0,0-.03-.02-.06-.06-.07h-.02s-.06.02-.07.06c0,0,0,0,0,0-.03,0-.06,0-.1,0,0,0,0,0,0,0,0-.03-.02-.06-.06-.07h-.02s0,0,0,0c-.03,0-.06.03-.06.06-.03,0-.06,0-.1,0,0,0,0,0,0,0,0-.03-.03-.06-.06-.06h-.02s0,0,0,0c-.03,0-.06.03-.06.06,0,0,0,0,0,0-.03,0-.06,0-.1,0,0,0,0,0,0,0,0-.03-.02-.06-.06-.07h-.02s0,0,0,0c-.03,0-.06.03-.06.06,0,0,0,0,0,0-.03,0-.06,0-.1,0,0,0,0,0,0,0,0-.03-.03-.06-.06-.06h-.02s0,0,0,0c-.03,0-.06.03-.06.06,0,0,0,0,0,0-.03,0-.06,0-.1,0,0-.03-.03-.06-.06-.06h-.02s-.06.03-.06.06c0,0,0,0,0,0-.03,0-.06,0-.1,0,0,0,0,0,0,0,0-.03-.03-.06-.06-.06h-.02s-.06.03-.06.06c0,0,0,0,0,0-.03,0-.06,0-.1,0,0,0,0,0,0,0,0-.03-.03-.06-.06-.06h-.02s-.06.03-.06.06c0,0,0,0,0,0-.03,0-.06,0-.1,0h0s-.03-.06-.06-.06h-.02s0,0,0,0c-.03,0-.06.03-.06.06h0s-.07,0-.1,0c0,0,0,0,0,0,0-.03-.03-.06-.06-.06h-.02s-.06.03-.06.06c0,0,0,0,0,0-.03,0-.06,0-.1,0,0,0,0,0,0,0,0-.03-.03-.06-.06-.06h-.02s-.06.03-.06.06c0,0,0,0,0,0-.03,0-.06,0-.1,0,0,0,0,0,0,0,0-.03-.03-.06-.06-.06h-.02s-.06.03-.06.06h0s-.06,0-.1,0c0-.03-.03-.06-.06-.06h-.02s-.06.03-.06.06h-.1s0,0,0,0c0-.03-.03-.06-.06-.06h-.02s-.06.03-.06.06c0,0,0,0,0,0h-.1s-.03-.06-.06-.06h-.02s-.06.03-.06.06c0,0,0,0,0,0-.03,0-.06,0-.1,0h0s-.03-.06-.06-.06h-.02s-.06.03-.06.06h0s-.06,0-.1,0c0,0,0,0,0,0,0-.03-.03-.06-.06-.06h-.02s-.06.03-.06.06c0,0,0,0,0,0-.03,0-.06,0-.1,0,0,0,0,0,0,0,0-.03-.03-.06-.06-.06h-.02s-.06.03-.06.06c0,0,0,0,0,0-.03,0-.06,0-.1,0h0s-.03-.06-.06-.06h-.02s-.06.03-.06.06c0,0,0,0,0,0-.03,0-.06,0-.1,0,0-.03-.03-.06-.06-.06h-.02s-.06.03-.06.06h0s-.06,0-.1,0c0,0,0,0,0,0,0-.03-.03-.06-.06-.06h-.02s-.06.03-.06.06c0,0,0,0,0,0-.03,0-.06,0-.1,0,0,0,0,0,0,0,0-.03-.03-.06-.06-.06h-.02s-.06.03-.06.06h0s-.06,0-.1,0c0,0,0,0,0,0,0-.03-.03-.06-.06-.06h-.02s-.06.03-.06.06h0s-.06,0-.1,0h0s-.03-.06-.06-.06h-.02s-.06.03-.06.06c0,0,0,0,0,0-.03,0-.06,0-.1,0,0,0,0,0,0,0,0-.03-.03-.06-.06-.06h-.02s-.06.03-.06.06c0,0,0,0,0,0-.03,0-.07,0-.1,0,0,0,0,0,0,0,0-.03-.03-.06-.06-.06h-.02s-.06.03-.06.06c0,0,0,0,0,0-.03,0-.07,0-.1,0,0-.03-.03-.06-.06-.06h-.02s-.06.03-.06.06h0s-.06,0-.1,0c0,0,0,0,0,0,0-.03-.03-.06-.06-.06h-.02s-.06.03-.06.07c0,0,0,0,0,0-.03,0-.06,0-.1,0,0,0,0,0,0,0,0-.03-.03-.06-.06-.06h-.03s-.06.03-.06.07c0,0,0,0,0,0-.03,0-.07,0-.1,0,0,0,0,0,0,0,0-.03-.02-.06-.06-.06h-.02s-.06.03-.06.07c0,0,0,0,0,0-.03,0-.06,0-.1,0,0,0,0,0,0,0,0-.03-.03-.06-.06-.06h-.03s-.06.03-.06.07c0,0,0,0,0,0-.03,0-.06,0-.1,0,0,0,0,0,0,0,0-.03-.03-.06-.07-.06h-.02s-.06.03-.06.07c0,0,0,0,0,0-.03,0-.07,0-.1,0,0,0,0,0,0,0,0-.03-.03-.06-.07-.06h-.02s-.06.03-.06.07h0s-.06,0-.1,0h0s-.03-.06-.07-.06h-.02s-.06.03-.06.07c0,0,0,0,0,0-.03,0-.06,0-.1,0,0,0,0,0,0,0,0-.03-.04-.06-.07-.06h-.02s-.06.03-.06.07c0,0,0,0,0,0-.03,0-.07,0-.1,0,0,0,0,0,0,0,0-.03-.04-.06-.07-.06h-.02s-.06.03-.06.07h0s-.06,0-.1.01c0,0,0,0,0,0,0-.03-.03-.06-.07-.06h-.02s-.06.04-.06.07c0,0,0,0,0,0-.03,0-.07,0-.1,0,0,0,0,0,0,0,0-.03-.04-.06-.07-.05h-.02s-.06.04-.05.07c0,0,0,0,0,0-.03,0-.07,0-.1,0,0,0,0,0,0,0,0-.03-.03-.06-.07-.05h-.02s-.06.04-.05.07c0,0,0,0,0,0-.03,0-.06,0-.1.01,0,0,0,0,0,0,0-.03-.04-.06-.07-.05h-.02s-.06.04-.05.07c0,0,0,0,0,0-.03,0-.07,0-.1.01,0,0,0,0,0,0,0-.03-.04-.06-.07-.05h-.02s-.06.04-.05.07c0,0,0,0,0,0-.03,0-.06,0-.1.01,0,0,0,0,0,0,0-.03-.03-.06-.07-.05h-.02s-.06.04-.05.07c0,0,0,0,0,0-.03,0-.06.01-.1.02,0,0,0,0,0,0,0-.03-.04-.06-.07-.05h-.02s-.06.04-.05.08c0,0,0,0,0,0-.03,0-.07.01-.1.02h0s-.05-.05-.08-.05c0,0-.01,0-.01,0-.03,0-.06.04-.05.07,0,0,0,0,0,0-.03,0-.06.01-.1.02,0,0,0,0,0,0,0-.03-.04-.05-.08-.05h-.02s-.05.05-.05.08c0,0,0,0,0,0-.03,0-.07.01-.1.02,0,0,0,0,0,0,0-.03-.04-.05-.08-.04h-.02s-.05.05-.04.08c0,0,0,0,0,0-.03,0-.07.02-.1.03,0,0,0,0,0,0-.01-.03-.05-.05-.08-.04h-.01s-.05.05-.04.08c0,0,0,0,0,0-.03.01-.07.02-.1.03,0,0,0,0,0,0-.01-.03-.05-.05-.09-.04,0,0,0,0,0,0-.03.01-.05.05-.04.08,0,0,0,0,0,0-.03.01-.06.03-.09.04,0,0,0,0,0,0-.01-.03-.05-.05-.08-.03h-.02s-.05.06-.03.09c0,0,0,0,0,0-.03.01-.06.03-.09.04,0,0,0,0,0,0-.02-.03-.05-.04-.08-.02h-.02s-.04.06-.03.09c0,0,0,0,0,0-.03.02-.06.03-.09.05,0,0,0,0,0,0-.02-.03-.06-.03-.09-.01h-.02s-.03.07-.01.1c0,0,0,0,0,0-.03.02-.05.04-.08.07,0,0,0,0,0,0Z"/>
      <polygon points="133.06 37.09 135.16 37.09 135.16 42.79 137.06 42.79 139.91 42.79 161.75 42.79 161.75 37.09 163.85 37.09 163.85 14.3 133.06 14.3 133.06 37.09"/>
      <rect x="32.47" y="18.09" width="13.3" height="24.69"/>
      <path d="M353.22,41.4v-1.19h-1.89v1.19h.76v.72h-.85c-.08,0-.14.06-.14.14s.06.14.14.14h2.14c.08,0,.14-.06.14-.14s-.06-.14-.14-.14h-.9v-.72h.74Z"/>
      <path d="M337.86,41.4v-1.19h-1.89v1.19h.76v.72h-.85c-.08,0-.14.06-.14.14s.06.14.14.14h2.14s.07-.02.09-.04v.42h12.35v-9.68h-12.35v9.05s-.06-.04-.09-.04h-.9v-.72h.74Z"/>
      <rect class="cls-1" x="23.93" y="25.69" width="3.8" height="3.8"/>
      <g>
        <rect class="cls-1" x="15.94" y="25.69" width="3.8" height="3.8"/>
        <rect class="cls-1" x="15.94" y="36.14" width="3.8" height="3.8"/>
      </g>
      <rect class="cls-1" x="7.39" y="25.69" width="3.8" height="3.8"/>
      <g>
        <rect class="cls-1" x="73.05" y="17.94" width="9.66" height="4.14"/>
        <rect class="cls-1" x="85.47" y="17.94" width="9.66" height="4.14"/>
      </g>
      <g>
        <rect class="cls-1" x="73.05" y="27.59" width="9.66" height="4.14"/>
        <rect class="cls-1" x="85.47" y="27.59" width="9.66" height="4.14"/>
      </g>
      <g>
        <rect class="cls-1" x="73.05" y="37.25" width="9.66" height="4.14"/>
        <rect class="cls-1" x="85.47" y="37.25" width="9.66" height="4.14"/>
      </g>
      <path class="cls-1" d="M127.27,24.73c-.79,0-1.43.43-1.43.95v6.65h2.86v-6.65c0-.52-.64-.95-1.43-.95Z"/>
      <path class="cls-1" d="M121.6,24.73c-.79,0-1.43.43-1.43.95v6.65h2.86v-6.65c0-.52-.64-.95-1.43-.95Z"/>
      <path class="cls-1" d="M115.9,24.73c-.79,0-1.43.43-1.43.95v6.65h2.86v-6.65c0-.52-.64-.95-1.43-.95Z"/>
      <rect class="cls-1" x="248.25" y="38.04" width="2.85" height="2.85"/>
      <path class="cls-1" d="M269.08,38.04c0-.52-.42-.95-.95-.95s-.95.42-.95.95h0v2.85h1.9v-2.85h0Z"/>
      <path class="cls-1" d="M260.53,38.04c0-.52-.43-.95-.95-.95s-.95.42-.95.95h0v2.85h1.9v-2.85h0Z"/>
      <rect class="cls-1" x="313.08" y="38.04" width="3.8" height="2.85"/>
      <rect class="cls-1" x="302.64" y="38.04" width="3.8" height="2.85"/>
      <rect class="cls-1" x="355.66" y="38.04" width="5.7" height="2.85"/>
      <path class="cls-1" d="M347.61,38.04c0-.52-.42-.95-.95-.95s-.95.42-.95.95h0v2.85h1.9v-2.85h0Z"/>
      <rect class="cls-1" x="231.29" y="38.04" width="3.8" height="2.85"/>
      <rect class="cls-1" x="225.59" y="29.68" width="5.7" height="5.7"/>
      <rect class="cls-1" x="321.79" y="31.39" width="2.82" height="2.85"/>
      <rect class="cls-1" x="325.59" y="31.39" width="2.82" height="2.85"/>
      <rect class="cls-1" x="283.7" y="21.67" width="9.94" height="3.71"/>
      <rect class="cls-1" x="276.24" y="21.67" width="3.73" height="3.71"/>
      <rect class="cls-1" x="276.24" y="14.2" width="3.73" height="3.71"/>
      <rect class="cls-1" x="276.24" y="29.12" width="17.39" height="3.71"/>
      <rect class="cls-1" x="276.24" y="36.58" width="17.39" height="3.71"/>
      <path class="cls-1" d="M61.81,24.73c-.79,0-1.43.43-1.43.95v6.65h2.86v-6.65c0-.52-.64-.95-1.43-.95Z"/>
      <path class="cls-1" d="M56.14,24.73c-.79,0-1.43.43-1.43.95v6.65h2.86v-6.65c0-.52-.64-.95-1.43-.95Z"/>
      <path class="cls-1" d="M50.45,24.73c-.79,0-1.43.43-1.43.95v6.65h2.86v-6.65c0-.52-.64-.95-1.43-.95Z"/>
      <rect class="cls-1" x="195.4" y="12.4" width="3.8" height="3.8"/>
      <rect class="cls-1" x="195.4" y="19.05" width="3.8" height="3.8"/>
      <rect class="cls-1" x="195.4" y="25.69" width="3.8" height="3.8"/>
      <rect class="cls-1" x="186.85" y="12.4" width="3.8" height="3.8"/>
      <rect class="cls-1" x="186.85" y="19.05" width="3.8" height="3.8"/>
      <rect class="cls-1" x="186.85" y="25.69" width="3.8" height="3.8"/>
      <g>
        <rect class="cls-1" x="178.3" y="12.4" width="3.8" height="3.8"/>
        <rect class="cls-1" x="178.3" y="19.05" width="3.8" height="3.8"/>
        <rect class="cls-1" x="178.3" y="25.69" width="3.8" height="3.8"/>
      </g>
      <rect class="cls-1" x="169.76" y="12.4" width="3.8" height="3.8"/>
      <rect class="cls-1" x="169.76" y="19.05" width="3.8" height="3.8"/>
      <rect class="cls-1" x="169.76" y="25.69" width="3.8" height="3.8"/>
      <g>
        <rect class="cls-1" x="43.03" y="20.43" width="1.15" height="4.21"/>
        <rect class="cls-1" x="43.03" y="26.18" width="1.15" height="4.21"/>
        <rect class="cls-1" x="43.03" y="31.92" width="1.15" height="4.21"/>
      </g>
    </g>
  </g>
  <g>
    <rect x="743.87" y="42.55" width="372.25" height="5.31"/>
    <g>
      <polygon points="774.44 32.34 774.44 21.9 748.41 21.9 748.41 32.34 748.41 42.79 774.44 42.79 774.44 32.34"/>
      <polygon points="854.17 0 838.99 .02 838.99 11.04 812.78 11.05 812.78 42.79 854.17 42.75 854.17 0"/>
      <rect x="856.44" y="20.94" width="18.99" height="21.84"/>
      <path d="M996.86,36.22l-6.22-6.83-5.17,6.83h.95v6.57h9.5v-2.81h.95v.46h.95v-2.85h-.95v.46h-.95v-1.82h.95ZM996.86,38.53v.95h-.95v-.95h.95Z"/>
      <polygon points="999.65 42.79 1006.3 42.79 1009.15 42.79 1015.79 42.79 1015.79 33.1 999.65 33.1 999.65 42.79"/>
      <polygon points="1061.7 42.79 1061.7 33.1 1045.56 33.1 1045.56 42.79 1052.2 42.79 1055.05 42.79 1061.7 42.79"/>
      <rect x="1097.62" y="33.29" width="15.19" height="9.5"/>
      <polygon points="967.55 27.68 967.55 35.19 967.55 35.38 967.55 42.79 969.45 42.79 972.3 42.79 982.75 42.79 982.75 35.19 977.05 35.19 977.05 27.68 967.55 27.68"/>
      <path d="M1063.76,28.54v14.24h15.19v-5.66h.95v.46h.95v-2.85h-.95v.46h-.95v-1.67h.95v.46h.95v-2.85h-.95v.46h-.95v-3.04h-15.19ZM1079.9,35.68v.95h-.95v-.95h.95ZM1079.9,32.07v.95h-.95v-.95h.95Z"/>
      <rect x="1017.62" y="10.48" width="22.36" height="32.3"/>
      <polygon points="1040.03 31.36 1040.03 32.01 1041.27 32.01 1041.27 33.25 1043.75 33.25 1043.75 27.04 1041.27 27.04 1041.27 28.88 1040.03 28.88 1040.03 29.52 1041.27 29.52 1041.27 31.36 1040.03 31.36"/>
      <polygon points="1040.03 23.91 1040.03 24.55 1041.27 24.55 1041.27 25.8 1043.75 25.8 1043.75 19.59 1041.27 19.59 1041.27 21.43 1040.03 21.43 1040.03 22.07 1041.27 22.07 1041.27 23.91 1040.03 23.91"/>
      <polygon points="1040.03 16.46 1040.03 17.1 1041.27 17.1 1041.27 18.34 1043.75 18.34 1043.75 12.13 1041.27 12.13 1041.27 13.97 1040.03 13.97 1040.03 14.62 1041.27 14.62 1041.27 16.46 1040.03 16.46"/>
      <rect x="790.98" y="20.94" width="18.99" height="21.84"/>
      <path d="M910.77,29.59h-.87v-.46h-.95v2.85h.95v-.46h.87v1.73h-.87v-.46h-.95v2.85h.95v-.46h.87v1.73h-.87v-.46h-.95v2.85h.95v-.46h.87v3.93h35.14V8.6h-35.14v20.99ZM910.77,38.36h-.87v-.95h.87v.95ZM910.77,34.7h-.87v-.95h.87v.95ZM910.77,31.03h-.87v-.95h.87v.95Z"/>
      <path d="M948.59,29.32s-.06-.02-.09,0h-.01s-.32.01-.32.01v12.46c0,.82.37.99.83.99s.83-.17.83-.99v-9.61h.02s.05-.04.05-.07c.03,0,.06,0,.1-.01,0,.03.03.05.06.05,0,0,0,0,0,0h.02s.05-.04.05-.07c.05,0,.1-.02.16-.02l.02.06v-.06s.01.06.01.06c.03,0,.06-.03.05-.07.05,0,.11,0,.16-.02l.02.06v-.06s.01.06.01.06c.03,0,.06-.03.05-.06.03,0,.06,0,.1,0,0,.03.03.05.06.05h.03s.06-.03.06-.07c.03,0,.06,0,.1,0,0,.03.03.06.06.06h.03s.06-.03.06-.07c.03,0,.06,0,.1,0,0,.03.03.06.06.06,0,0,0,0,0,0h.02s.06-.03.06-.06c.03,0,.06,0,.1,0,0,.03.03.06.06.06h.02s.06-.03.06-.07c.03,0,.07,0,.1,0,0,.03.03.06.06.06,0,0,0,0,0,0h.02s.06-.03.06-.06c.03,0,.07,0,.1,0,0,.03.03.06.06.06h.02s.06-.03.06-.06c.03,0,.06,0,.1,0,0,.03.03.06.06.06h.02s.06-.03.06-.06c.03,0,.07,0,.1,0,0,.03.03.06.06.06h.02s.06-.03.06-.06c.03,0,.06,0,.1,0,0,.03.03.06.06.06h.02s.06-.03.06-.06c.03,0,.06,0,.1,0,0,.03.03.06.06.06h.02s.06-.03.06-.06c.03,0,.06,0,.1,0,0,.03.03.06.06.06h.02s.06-.03.06-.06c.03,0,.06,0,.1,0,0,.03.03.06.06.06h.02s.06-.03.06-.06c.03,0,.06,0,.1,0,0,.03.03.06.06.06h.02s.06-.03.06-.06c.03,0,.06,0,.1,0,0,.03.03.06.06.06h.02s.06-.03.06-.06c.03,0,.06,0,.1,0,0,.03.03.06.06.06h.02s.06-.03.06-.06c.03,0,.06,0,.1,0,0,.03.03.06.06.06h.02s.06-.03.06-.06h.1s.03.06.06.06h.02s.06-.03.06-.06h.1s.03.06.06.06h.02s.06-.03.06-.06h.1s.03.06.06.06h.02s.06-.03.06-.06h.1s.03.06.06.06h.02s.06-.03.06-.06c.03,0,.07,0,.1,0,0,.03.03.06.06.06h.02s.06-.03.06-.06h.1s.03.06.06.06h.02s.06-.03.06-.06c.03,0,.06,0,.1,0,0,.03.03.06.06.06h.02s.06-.03.06-.06c.03,0,.06,0,.1,0,0,.03.03.06.06.06h.02s.06-.03.06-.06c.03,0,.06,0,.1,0h0s.03.06.06.06h.02s.06-.03.06-.06h.1s.03.06.06.06h.02s.06-.03.06-.06h.1s.03.06.06.06h.02s.06-.03.06-.06h0s.06,0,.1,0c0,.03.03.06.06.06h.02s.06-.03.06-.06h.1s.03.06.06.06h.02s.06-.03.06-.06h0s.06,0,.1,0h0s.03.06.06.06h.02s.06-.03.06-.06h.1s.03.06.06.06h.02s.06-.03.06-.06h0s.06,0,.1,0h0s.03.06.06.06h.02s.06-.03.06-.06h0s.06,0,.1,0c0,0,0,0,0,0,0,.03.03.06.06.06h.02s.06-.03.06-.06c.03,0,.06,0,.1,0h0s.03.06.06.06h.02s.06-.03.06-.06h.1s.03.06.06.06h.02s.06-.03.06-.06h.1s.03.06.06.06h.02s.06-.03.06-.06h.1s.03.06.06.06h.02s.06-.03.06-.06c.03,0,.06,0,.1,0,0,.03.03.06.06.06h.02s.06-.03.06-.06c.03,0,.06,0,.1,0,0,.03.03.06.06.06h.02s.06-.03.06-.06c.03,0,.06,0,.1,0,0,.03.03.06.06.06h.02s.06-.03.06-.06c.03,0,.06,0,.1,0,0,.03.03.06.06.06h.02s.06-.03.06-.06c.03,0,.06,0,.1,0,0,.03.03.06.06.06h.02s0,0,0,0c.03,0,.06-.03.06-.06.03,0,.06,0,.1,0,0,.03.03.06.06.06h.02s.06-.03.06-.06c.03,0,.07,0,.1,0,0,.03.03.06.06.06h.02s0,0,0,0c.03,0,.06-.03.06-.06.03,0,.06,0,.1,0,0,.03.03.06.06.06h.02s0,0,0,0c.03,0,.06-.03.06-.06.03,0,.07,0,.1,0,0,.03.03.06.06.06h.02s0,0,0,0c.03,0,.06-.03.06-.06.05,0,.11,0,.16,0v.06s.02-.06.02-.06v.06s0,0,0,0c.03,0,.06-.03.06-.06.03,0,.06,0,.1,0,0,.03.02.06.06.06h.02s0,0,0,0c.03,0,.06-.03.06-.06.03,0,.07,0,.1,0,0,.03.02.06.06.06h.02s0,0,0,0c.03,0,.06-.03.06-.06.03,0,.06,0,.1,0,0,.03.02.06.06.06h.02s0,0,0,0c.03,0,.06-.02.06-.06.03,0,.06,0,.1,0,0,.03.02.06.06.06h.02s0,0,0,0c.03,0,.06-.02.06-.06.03,0,.07,0,.1,0,0,.03.02.06.06.07h.02s0,0,0,0c.03,0,.06-.02.06-.06.03,0,.06,0,.1,0,0,.03.02.06.05.06h.02s0,0,0,0c.03,0,.06-.02.06-.05.03,0,.07,0,.1,0,0,.03.02.06.05.07h.02s0,0,0,0c.03,0,.06-.02.06-.05.03,0,.06,0,.1.01,0,.03.02.06.05.07h.02s0,0,0,0c.03,0,.05-.02.06-.05.03,0,.07,0,.1.01,0,.03.02.06.05.07h.02s0,0,0,0c.03,0,.06-.02.06-.05.02,0,.03,0,.04,0v9.66c0,.82.37.99.83.99s.83-.17.83-.99v-12.46h-.45s0,0,0,0c0,0,0,0,0,0,.02-.03.02-.06,0-.09l-.02-.02s-.06-.02-.09,0c0,0,0,0,0,0-.03-.02-.05-.04-.08-.06,0,0,0,0,0,0,.02-.03,0-.07-.02-.08h-.02s-.07-.02-.09,0c0,0,0,0,0,0-.03-.02-.06-.04-.09-.05,0,0,0,0,0,0,.01-.03,0-.07-.03-.09h-.01s-.07,0-.08.03c0,0,0,0,0,0-.03-.01-.06-.03-.09-.04,0,0,0,0,0,0,.01-.03,0-.07-.04-.08h-.02s-.07,0-.08.03c0,0,0,0,0,0-.03-.01-.06-.03-.1-.04,0,0,0,0,0,0,.01-.03-.01-.07-.04-.08,0,0-.01,0-.01,0-.03-.01-.07,0-.08.04,0,0,0,0,0,0-.03,0-.06-.02-.1-.03,0,0,0,0,0,0,0-.03,0-.07-.04-.08h-.02s-.07,0-.08.04c0,0,0,0,0,0-.03,0-.06-.02-.09-.03,0,0,0,0,0,0,0-.03-.01-.07-.05-.07h-.02s-.07,0-.07.04c0,0,0,0,0,0-.03,0-.07-.02-.1-.02,0,0,0,0,0,0,0-.03-.02-.07-.05-.07h-.01s-.07.01-.07.05c0,0,0,0,0,0-.03,0-.06-.01-.1-.02,0,0,0,0,0,0,0-.03-.02-.07-.05-.07h-.02s-.07.01-.07.04c0,0,0,0,0,0-.03,0-.06-.01-.1-.02,0,0,0,0,0,0,0-.03-.02-.07-.05-.07h-.02s-.07.01-.07.05c0,0,0,0,0,0-.03,0-.06-.01-.1-.02,0,0,0,0,0,0,0-.03-.02-.07-.05-.07h-.02s-.07.01-.07.05c0,0,0,0,0,0-.03,0-.07,0-.1-.01,0,0,0,0,0,0,0-.03-.02-.07-.05-.07h-.02s-.06.02-.07.05c0,0,0,0,0,0-.03,0-.06,0-.1-.01,0,0,0,0,0,0,0-.03-.02-.06-.05-.07h-.02s-.06.02-.07.05h0s-.06,0-.1-.01c0,0,0,0,0,0,0-.03-.02-.06-.05-.07h-.02s-.06.02-.07.05c0,0,0,0,0,0-.03,0-.07,0-.1-.01,0,0,0,0,0,0,0-.03-.02-.06-.06-.07h-.02s-.06.02-.07.05c0,0,0,0,0,0-.03,0-.06,0-.1-.01,0,0,0,0,0,0,0-.03-.02-.06-.06-.07h-.02s-.06.02-.07.05h0s-.06,0-.1,0c0,0,0,0,0,0,0-.03-.02-.06-.06-.07h-.02s-.06.02-.07.05c0,0,0,0,0,0-.03,0-.06,0-.1,0,0,0,0,0,0,0,0-.03-.02-.06-.06-.07h-.02s-.06.02-.07.06c0,0,0,0,0,0-.03,0-.06,0-.1,0,0,0,0,0,0,0,0-.03-.02-.06-.06-.07h-.02s-.06.02-.07.06h0s-.07,0-.1,0c0,0,0,0,0,0,0-.03-.02-.06-.06-.07h-.02s-.06.02-.07.06c0,0,0,0,0,0-.03,0-.06,0-.1,0,0,0,0,0,0,0,0-.03-.02-.06-.06-.07h-.02s-.06.02-.07.06c0,0,0,0,0,0-.03,0-.06,0-.1,0,0,0,0,0,0,0,0-.03-.02-.06-.06-.07h-.02s0,0,0,0c-.03,0-.06.03-.06.06-.03,0-.06,0-.1,0,0,0,0,0,0,0,0-.03-.03-.06-.06-.06h-.02s0,0,0,0c-.03,0-.06.03-.06.06,0,0,0,0,0,0-.03,0-.06,0-.1,0,0,0,0,0,0,0,0-.03-.02-.06-.06-.07h-.02s0,0,0,0c-.03,0-.06.03-.06.06,0,0,0,0,0,0-.03,0-.06,0-.1,0,0,0,0,0,0,0,0-.03-.03-.06-.06-.06h-.02s0,0,0,0c-.03,0-.06.03-.06.06,0,0,0,0,0,0-.03,0-.06,0-.1,0,0-.03-.03-.06-.06-.06h-.02s-.06.03-.06.06c0,0,0,0,0,0-.03,0-.06,0-.1,0,0,0,0,0,0,0,0-.03-.03-.06-.06-.06h-.02s-.06.03-.06.06c0,0,0,0,0,0-.03,0-.06,0-.1,0,0,0,0,0,0,0,0-.03-.03-.06-.06-.06h-.02s-.06.03-.06.06c0,0,0,0,0,0-.03,0-.06,0-.1,0h0s-.03-.06-.06-.06h-.02s0,0,0,0c-.03,0-.06.03-.06.06h0s-.07,0-.1,0c0,0,0,0,0,0,0-.03-.03-.06-.06-.06h-.02s-.06.03-.06.06c0,0,0,0,0,0-.03,0-.06,0-.1,0,0,0,0,0,0,0,0-.03-.03-.06-.06-.06h-.02s-.06.03-.06.06c0,0,0,0,0,0-.03,0-.06,0-.1,0,0,0,0,0,0,0,0-.03-.03-.06-.06-.06h-.02s-.06.03-.06.06h0s-.06,0-.1,0c0-.03-.03-.06-.06-.06h-.02s-.06.03-.06.06h-.1s0,0,0,0c0-.03-.03-.06-.06-.06h-.02s-.06.03-.06.06c0,0,0,0,0,0h-.1s-.03-.06-.06-.06h-.02s-.06.03-.06.06c0,0,0,0,0,0-.03,0-.06,0-.1,0h0s-.03-.06-.06-.06h-.02s-.06.03-.06.06h0s-.06,0-.1,0c0,0,0,0,0,0,0-.03-.03-.06-.06-.06h-.02s-.06.03-.06.06c0,0,0,0,0,0-.03,0-.06,0-.1,0,0,0,0,0,0,0,0-.03-.03-.06-.06-.06h-.02s-.06.03-.06.06c0,0,0,0,0,0-.03,0-.06,0-.1,0h0s-.03-.06-.06-.06h-.02s-.06.03-.06.06c0,0,0,0,0,0-.03,0-.06,0-.1,0,0-.03-.03-.06-.06-.06h-.02s-.06.03-.06.06h0s-.06,0-.1,0c0,0,0,0,0,0,0-.03-.03-.06-.06-.06h-.02s-.06.03-.06.06c0,0,0,0,0,0-.03,0-.06,0-.1,0,0,0,0,0,0,0,0-.03-.03-.06-.06-.06h-.02s-.06.03-.06.06h0s-.06,0-.1,0c0,0,0,0,0,0,0-.03-.03-.06-.06-.06h-.02s-.06.03-.06.06h0s-.06,0-.1,0h0s-.03-.06-.06-.06h-.02s-.06.03-.06.06c0,0,0,0,0,0-.03,0-.06,0-.1,0,0,0,0,0,0,0,0-.03-.03-.06-.06-.06h-.02s-.06.03-.06.06c0,0,0,0,0,0-.03,0-.07,0-.1,0,0,0,0,0,0,0,0-.03-.03-.06-.06-.06h-.02s-.06.03-.06.06c0,0,0,0,0,0-.03,0-.07,0-.1,0,0-.03-.03-.06-.06-.06h-.02s-.06.03-.06.06h0s-.06,0-.1,0c0,0,0,0,0,0,0-.03-.03-.06-.06-.06h-.02s-.06.03-.06.07c0,0,0,0,0,0-.03,0-.06,0-.1,0,0,0,0,0,0,0,0-.03-.03-.06-.06-.06h-.03s-.06.03-.06.07c0,0,0,0,0,0-.03,0-.07,0-.1,0,0,0,0,0,0,0,0-.03-.02-.06-.06-.06h-.02s-.06.03-.06.07c0,0,0,0,0,0-.03,0-.06,0-.1,0,0,0,0,0,0,0,0-.03-.03-.06-.06-.06h-.03s-.06.03-.06.07c0,0,0,0,0,0-.03,0-.06,0-.1,0,0,0,0,0,0,0,0-.03-.03-.06-.07-.06h-.02s-.06.03-.06.07c0,0,0,0,0,0-.03,0-.07,0-.1,0,0,0,0,0,0,0,0-.03-.03-.06-.07-.06h-.02s-.06.03-.06.07h0s-.06,0-.1,0h0s-.03-.06-.07-.06h-.02s-.06.03-.06.07c0,0,0,0,0,0-.03,0-.06,0-.1,0,0,0,0,0,0,0,0-.03-.04-.06-.07-.06h-.02s-.06.03-.06.07c0,0,0,0,0,0-.03,0-.07,0-.1,0,0,0,0,0,0,0,0-.03-.04-.06-.07-.06h-.02s-.06.03-.06.07h0s-.06,0-.1.01c0,0,0,0,0,0,0-.03-.03-.06-.07-.06h-.02s-.06.04-.06.07c0,0,0,0,0,0-.03,0-.07,0-.1,0,0,0,0,0,0,0,0-.03-.04-.06-.07-.05h-.02s-.06.04-.05.07c0,0,0,0,0,0-.03,0-.07,0-.1,0,0,0,0,0,0,0,0-.03-.03-.06-.07-.05h-.02s-.06.04-.05.07c0,0,0,0,0,0-.03,0-.06,0-.1.01,0,0,0,0,0,0,0-.03-.04-.06-.07-.05h-.02s-.06.04-.05.07c0,0,0,0,0,0-.03,0-.07,0-.1.01,0,0,0,0,0,0,0-.03-.04-.06-.07-.05h-.02s-.06.04-.05.07c0,0,0,0,0,0-.03,0-.06,0-.1.01,0,0,0,0,0,0,0-.03-.03-.06-.07-.05h-.02s-.06.04-.05.07c0,0,0,0,0,0-.03,0-.06.01-.1.02,0,0,0,0,0,0,0-.03-.04-.06-.07-.05h-.02s-.06.04-.05.08c0,0,0,0,0,0-.03,0-.07.01-.1.02h0s-.05-.05-.08-.05c0,0-.01,0-.01,0-.03,0-.06.04-.05.07,0,0,0,0,0,0-.03,0-.06.01-.1.02,0,0,0,0,0,0,0-.03-.04-.05-.08-.05h-.02s-.05.05-.05.08c0,0,0,0,0,0-.03,0-.07.01-.1.02,0,0,0,0,0,0,0-.03-.04-.05-.08-.04h-.02s-.05.05-.04.08c0,0,0,0,0,0-.03,0-.07.02-.1.03,0,0,0,0,0,0-.01-.03-.05-.05-.08-.04h-.01s-.05.05-.04.08c0,0,0,0,0,0-.03.01-.07.02-.1.03,0,0,0,0,0,0-.01-.03-.05-.05-.09-.04,0,0,0,0,0,0-.03.01-.05.05-.04.08,0,0,0,0,0,0-.03.01-.06.03-.09.04,0,0,0,0,0,0-.01-.03-.05-.05-.08-.03h-.02s-.05.06-.03.09c0,0,0,0,0,0-.03.01-.06.03-.09.04,0,0,0,0,0,0-.02-.03-.05-.04-.08-.02h-.02s-.04.06-.03.09c0,0,0,0,0,0-.03.02-.06.03-.09.05,0,0,0,0,0,0-.02-.03-.06-.03-.09-.01h-.02s-.03.07-.01.1c0,0,0,0,0,0-.03.02-.05.04-.08.07,0,0,0,0,0,0Z"/>
      <polygon points="876.93 37.09 879.03 37.09 879.03 42.79 880.93 42.79 883.78 42.79 905.62 42.79 905.62 37.09 907.72 37.09 907.72 14.3 876.93 14.3 876.93 37.09"/>
      <rect x="776.34" y="18.09" width="13.3" height="24.69"/>
      <path d="M1097.09,41.4v-1.19h-1.89v1.19h.76v.72h-.85c-.08,0-.14.06-.14.14s.06.14.14.14h2.14c.08,0,.14-.06.14-.14s-.06-.14-.14-.14h-.9v-.72h.74Z"/>
      <path d="M1081.72,41.4v-1.19h-1.89v1.19h.76v.72h-.85c-.08,0-.14.06-.14.14s.06.14.14.14h2.14s.07-.02.09-.04v.42h12.35v-9.68h-12.35v9.05s-.06-.04-.09-.04h-.9v-.72h.74Z"/>
      <rect class="cls-1" x="767.79" y="25.69" width="3.8" height="3.8"/>
      <g>
        <rect class="cls-1" x="759.81" y="25.69" width="3.8" height="3.8"/>
        <rect class="cls-1" x="759.81" y="36.14" width="3.8" height="3.8"/>
      </g>
      <rect class="cls-1" x="751.26" y="25.69" width="3.8" height="3.8"/>
      <g>
        <rect class="cls-1" x="816.92" y="17.94" width="9.66" height="4.14"/>
        <rect class="cls-1" x="829.33" y="17.94" width="9.66" height="4.14"/>
      </g>
      <g>
        <rect class="cls-1" x="816.92" y="27.59" width="9.66" height="4.14"/>
        <rect class="cls-1" x="829.33" y="27.59" width="9.66" height="4.14"/>
      </g>
      <g>
        <rect class="cls-1" x="816.92" y="37.25" width="9.66" height="4.14"/>
        <rect class="cls-1" x="829.33" y="37.25" width="9.66" height="4.14"/>
      </g>
      <path class="cls-1" d="M871.13,24.73c-.79,0-1.43.43-1.43.95v6.65h2.86v-6.65c0-.52-.64-.95-1.43-.95Z"/>
      <path class="cls-1" d="M865.47,24.73c-.79,0-1.43.43-1.43.95v6.65h2.86v-6.65c0-.52-.64-.95-1.43-.95Z"/>
      <path class="cls-1" d="M859.77,24.73c-.79,0-1.43.43-1.43.95v6.65h2.86v-6.65c0-.52-.64-.95-1.43-.95Z"/>
      <rect class="cls-1" x="992.12" y="38.04" width="2.85" height="2.85"/>
      <path class="cls-1" d="M1012.95,38.04c0-.52-.42-.95-.95-.95s-.95.42-.95.95h0v2.85h1.9v-2.85h0Z"/>
      <path class="cls-1" d="M1004.4,38.04c0-.52-.43-.95-.95-.95s-.95.42-.95.95h0v2.85h1.9v-2.85h0Z"/>
      <rect class="cls-1" x="1056.95" y="38.04" width="3.8" height="2.85"/>
      <rect class="cls-1" x="1046.5" y="38.04" width="3.8" height="2.85"/>
      <rect class="cls-1" x="1099.52" y="38.04" width="5.7" height="2.85"/>
      <path class="cls-1" d="M1091.47,38.04c0-.52-.42-.95-.95-.95s-.95.42-.95.95h0v2.85h1.9v-2.85h0Z"/>
      <rect class="cls-1" x="975.15" y="38.04" width="3.8" height="2.85"/>
      <rect class="cls-1" x="969.45" y="29.68" width="5.7" height="5.7"/>
      <rect class="cls-1" x="1065.66" y="31.39" width="2.82" height="2.85"/>
      <rect class="cls-1" x="1069.46" y="31.39" width="2.82" height="2.85"/>
      <rect class="cls-1" x="1027.56" y="21.67" width="9.94" height="3.71"/>
      <rect class="cls-1" x="1020.11" y="21.67" width="3.73" height="3.71"/>
      <rect class="cls-1" x="1020.11" y="14.2" width="3.73" height="3.71"/>
      <rect class="cls-1" x="1020.11" y="29.12" width="17.39" height="3.71"/>
      <rect class="cls-1" x="1020.11" y="36.58" width="17.39" height="3.71"/>
      <path class="cls-1" d="M805.67,24.73c-.79,0-1.43.43-1.43.95v6.65h2.86v-6.65c0-.52-.64-.95-1.43-.95Z"/>
      <path class="cls-1" d="M800.01,24.73c-.79,0-1.43.43-1.43.95v6.65h2.86v-6.65c0-.52-.64-.95-1.43-.95Z"/>
      <path class="cls-1" d="M794.31,24.73c-.79,0-1.43.43-1.43.95v6.65h2.86v-6.65c0-.52-.64-.95-1.43-.95Z"/>
      <rect class="cls-1" x="939.26" y="12.4" width="3.8" height="3.8"/>
      <rect class="cls-1" x="939.26" y="19.05" width="3.8" height="3.8"/>
      <rect class="cls-1" x="939.26" y="25.69" width="3.8" height="3.8"/>
      <rect class="cls-1" x="930.72" y="12.4" width="3.8" height="3.8"/>
      <rect class="cls-1" x="930.72" y="19.05" width="3.8" height="3.8"/>
      <rect class="cls-1" x="930.72" y="25.69" width="3.8" height="3.8"/>
      <g>
        <rect class="cls-1" x="922.17" y="12.4" width="3.8" height="3.8"/>
        <rect class="cls-1" x="922.17" y="19.05" width="3.8" height="3.8"/>
        <rect class="cls-1" x="922.17" y="25.69" width="3.8" height="3.8"/>
      </g>
      <rect class="cls-1" x="913.62" y="12.4" width="3.8" height="3.8"/>
      <rect class="cls-1" x="913.62" y="19.05" width="3.8" height="3.8"/>
      <rect class="cls-1" x="913.62" y="25.69" width="3.8" height="3.8"/>
      <g>
        <rect class="cls-1" x="786.89" y="20.43" width="1.15" height="4.21"/>
        <rect class="cls-1" x="786.89" y="26.18" width="1.15" height="4.21"/>
        <rect class="cls-1" x="786.89" y="31.92" width="1.15" height="4.21"/>
      </g>
    </g>
  </g>
</svg>